<svg xmlns="http://www.w3.org/2000/svg" viewBox="0 0 148 25"><path d="M37 6.3h5.2c.7 0 1.4.2 2.1.5.6.3 1.1.7 1.5 1.3s.5 1.1.5 1.8-.2 1.3-.5 1.7c-.3.5-.8.9-1.3 1.1v.1c.7.2 1.2.6 1.7 1.2.4.5.6 1.2.6 1.9s-.2 1.4-.6 2c-.4.6-.9 1-1.6 1.3-.7.3-1.4.5-2.2.5H37V6.3zm5 5.4c.5 0 1-.2 1.3-.5s.5-.7.5-1.1c0-.4-.2-.8-.5-1.1s-.7-.5-1.3-.5h-2.6v3.2H42zm.3 5.7c.6 0 1.1-.2 1.4-.5.3-.3.5-.7.5-1.2s-.2-.9-.5-1.3c-.3-.3-.8-.5-1.5-.5h-2.7v3.5h2.8zM55.2 20c-1.3 0-2.5-.3-3.6-.9-1-.6-1.9-1.5-2.5-2.5-.6-1.1-.9-2.2-.9-3.5s.3-2.5.9-3.5c.6-1.1 1.5-1.9 2.5-2.5 1.2-.8 2.3-1.1 3.6-1.1s2.5.3 3.6.9c1 .6 1.9 1.5 2.5 2.5.6 1.1.9 2.2.9 3.5s-.3 2.5-.9 3.5c-.6 1.1-1.5 1.9-2.5 2.5-1.1.8-2.2 1.1-3.6 1.1zm0-2.4c.8 0 1.6-.2 2.3-.6s1.2-.9 1.6-1.6c.4-.7.6-1.5.6-2.4s-.2-1.7-.6-2.4c-.4-.7-.9-1.2-1.6-1.6-.7-.4-1.5-.6-2.3-.6s-1.6.2-2.2.6c-.7.4-1.2.9-1.6 1.6-.4.7-.6 1.5-.6 2.4s.2 1.7.6 2.4c.4.7.9 1.2 1.6 1.6.7.4 1.5.6 2.2.6zM70.6 20c-1.3 0-2.5-.3-3.6-.9-1-.6-1.9-1.5-2.5-2.5-.6-1.1-.9-2.2-.9-3.5s.3-2.5.9-3.5c.6-1.2 1.5-2.1 2.5-2.7 1.1-.6 2.3-.9 3.6-.9 1.3 0 2.5.3 3.6.9 1 .6 1.9 1.5 2.5 2.5.6 1.1.9 2.2.9 3.5s-.3 2.5-.9 3.5c-.6 1.1-1.5 1.9-2.5 2.5-1.1.8-2.3 1.1-3.6 1.1zm0-2.4c.8 0 1.6-.2 2.3-.6.7-.4 1.2-.9 1.6-1.6.4-.7.6-1.5.6-2.4s-.2-1.7-.6-2.4-.9-1.2-1.6-1.6c-.7-.4-1.5-.6-2.3-.6s-1.6.2-2.2.6c-.7.4-1.2.9-1.6 1.6-.4.7-.6 1.5-.6 2.4s.2 1.7.6 2.4c.4.7.9 1.2 1.6 1.6.6.4 1.4.6 2.2.6zm9.2-11.3h2.5V12h.2l4.9-5.7h3v.1L85.6 12l5.3 7.5v.1h-3.1l-4-5.7-1.5 1.8v3.9h-2.5V6.3zm14-.3H97l3.5 9.4h.2l3.5-9.4h3.3v13.4H105v-6.6l.2-2.2h-.2l-3.4 8.8h-2l-3.4-8.8h-.1l.2 2.2v6.6h-2.5V6zm20.8 0h2.9l5 13.4h-2.8l-1.1-3.2h-5.1l-1.1 3.2h-2.8l5-13.4zm3.2 7.9l-1.2-3.4-.5-1.6h-.1l-.5 1.6-1.2 3.4h3.5zm6.8-7.9h4.9c.9 0 1.6.2 2.3.5.7.4 1.2.9 1.6 1.5.4.6.6 1.4.6 2.2 0 .9-.3 1.6-.8 2.3s-1.2 1.2-2 1.4v.1l3.6 5.1v.1h-2.9l-3.5-5h-1.2v5h-2.5c-.1.2-.1-13.2-.1-13.2zm4.8 6c.6 0 1-.2 1.4-.5s.5-.8.5-1.3-.2-.9-.5-1.3-.8-.5-1.4-.5H127V12h2.4zm7.2-6h2.5v5.7h.1l4.9-5.7h3v.2l-4.8 5.5 5.3 7.5v.1h-3.1l-4-5.7-1.5 1.8v3.9h-2.5l.1-13.3z" fill="#fff"/><g fill-rule="evenodd" clip-rule="evenodd"><circle cx="12.5" cy="12.5" r="12.5" fill="#5267df"/><path d="M9 9v10l3.5-3.4L16 19V9c0-1.1-.9-2-2-2h-3c-1.1 0-2 .9-2 2z" fill="#fff"/></g></svg>